<?xml version="1.0" encoding="UTF-8" standalone="no"?>
<svg
   version="1.1"
   id="Capa_1"
   x="0px"
   y="0px"
   viewBox="0 0 512 512"
   style="enable-background:new 0 0 512 512;"
   xml:space="preserve"
   sodipodi:docname="instagram.svg"
   inkscape:version="1.1 (c68e22c387, 2021-05-23)"
   xmlns:inkscape="http://www.inkscape.org/namespaces/inkscape"
   xmlns:sodipodi="http://sodipodi.sourceforge.net/DTD/sodipodi-0.dtd"
   xmlns="http://www.w3.org/2000/svg"
   xmlns:svg="http://www.w3.org/2000/svg"><defs
   id="defs319" /><sodipodi:namedview
   id="namedview317"
   pagecolor="#505050"
   bordercolor="#eeeeee"
   borderopacity="1"
   inkscape:pageshadow="0"
   inkscape:pageopacity="0"
   inkscape:pagecheckerboard="0"
   showgrid="false"
   inkscape:zoom="1.625"
   inkscape:cx="256"
   inkscape:cy="256.30769"
   inkscape:window-width="1920"
   inkscape:window-height="1017"
   inkscape:window-x="-8"
   inkscape:window-y="-8"
   inkscape:window-maximized="1"
   inkscape:current-layer="Capa_1" />
<g
   id="g272"
   style="fill:#ffffff">
	<g
   id="g270"
   style="fill:#ffffff">
		<path
   d="M363.273,0H148.728C66.719,0,0,66.719,0,148.728v214.544C0,445.281,66.719,512,148.728,512h214.544    C445.281,512,512,445.281,512,363.273V148.728C512,66.719,445.281,0,363.273,0z M472,363.272C472,423.225,423.225,472,363.273,472    H148.728C88.775,472,40,423.225,40,363.273V148.728C40,88.775,88.775,40,148.728,40h214.544C423.225,40,472,88.775,472,148.728    V363.272z"
   id="path268"
   style="fill:#ffffff" />
	</g>
</g>
<g
   id="g278"
   style="fill:#ffffff">
	<g
   id="g276"
   style="fill:#ffffff">
		<path
   d="M256,118c-76.094,0-138,61.906-138,138s61.906,138,138,138s138-61.906,138-138S332.094,118,256,118z M256,354    c-54.037,0-98-43.963-98-98s43.963-98,98-98s98,43.963,98,98S310.037,354,256,354z"
   id="path274"
   style="fill:#ffffff" />
	</g>
</g>
<g
   id="g284"
   style="fill:#ffffff">
	<g
   id="g282"
   style="fill:#ffffff">
		<circle
   cx="396"
   cy="116"
   r="20"
   id="circle280"
   style="fill:#ffffff" />
	</g>
</g>
<g
   id="g286">
</g>
<g
   id="g288">
</g>
<g
   id="g290">
</g>
<g
   id="g292">
</g>
<g
   id="g294">
</g>
<g
   id="g296">
</g>
<g
   id="g298">
</g>
<g
   id="g300">
</g>
<g
   id="g302">
</g>
<g
   id="g304">
</g>
<g
   id="g306">
</g>
<g
   id="g308">
</g>
<g
   id="g310">
</g>
<g
   id="g312">
</g>
<g
   id="g314">
</g>
</svg>
